<mxfile host="app.diagrams.net" modified="2021-10-15T03:33:27.059Z" agent="5.0 (Windows NT 10.0; Win64; x64) AppleWebKit/537.36 (KHTML, like Gecko) Chrome/94.0.4606.81 Safari/537.36" etag="Wku_gA2Yal5ZXOXCJ0pk" version="15.5.2" type="github">
  <diagram id="IgQk5zFN0d73Wt5vbOF0" name="Page-1">
    <mxGraphModel dx="2661" dy="994" grid="1" gridSize="10" guides="1" tooltips="1" connect="1" arrows="1" fold="1" page="1" pageScale="1" pageWidth="827" pageHeight="1169" math="0" shadow="0">
      <root>
        <mxCell id="0" />
        <mxCell id="1" parent="0" />
        <mxCell id="zL9s2MAgw91FGzoXhTXC-10" value="" style="rounded=1;whiteSpace=wrap;html=1;fontSize=44;strokeWidth=4;fillColor=none;" parent="1" vertex="1">
          <mxGeometry x="-360" y="82" width="1640" height="880" as="geometry" />
        </mxCell>
        <mxCell id="q2XyKqmEsxMkfOhUg6Uy-18" value="" style="group" parent="1" vertex="1" connectable="0">
          <mxGeometry x="40" y="542" width="600" height="340" as="geometry" />
        </mxCell>
        <mxCell id="q2XyKqmEsxMkfOhUg6Uy-19" value="가열로 6" style="rounded=0;whiteSpace=wrap;html=1;fontSize=33;fillColor=#f5f5f5;strokeColor=#666666;fontColor=#333333;strokeWidth=3;" parent="q2XyKqmEsxMkfOhUg6Uy-18" vertex="1">
          <mxGeometry width="200" height="80" as="geometry" />
        </mxCell>
        <mxCell id="q2XyKqmEsxMkfOhUg6Uy-20" value="가열로 7" style="rounded=0;whiteSpace=wrap;html=1;fontSize=33;fillColor=#f5f5f5;strokeColor=#666666;fontColor=#333333;strokeWidth=3;" parent="q2XyKqmEsxMkfOhUg6Uy-18" vertex="1">
          <mxGeometry y="100" width="200" height="80" as="geometry" />
        </mxCell>
        <mxCell id="q2XyKqmEsxMkfOhUg6Uy-21" value="가열로 11" style="rounded=0;whiteSpace=wrap;html=1;fontSize=33;fillColor=#f5f5f5;strokeColor=#666666;fontColor=#333333;strokeWidth=3;" parent="q2XyKqmEsxMkfOhUg6Uy-18" vertex="1">
          <mxGeometry y="260" width="200" height="80" as="geometry" />
        </mxCell>
        <mxCell id="q2XyKqmEsxMkfOhUg6Uy-22" value="프레스기 2" style="rounded=0;whiteSpace=wrap;html=1;fontSize=33;fillColor=#f5f5f5;strokeColor=#666666;fontColor=#333333;strokeWidth=3;" parent="q2XyKqmEsxMkfOhUg6Uy-18" vertex="1">
          <mxGeometry x="400" y="100" width="200" height="80" as="geometry" />
        </mxCell>
        <mxCell id="q2XyKqmEsxMkfOhUg6Uy-23" value="" style="shape=image;html=1;verticalAlign=top;verticalLabelPosition=bottom;labelBackgroundColor=#ffffff;imageAspect=0;aspect=fixed;image=https://cdn2.iconfinder.com/data/icons/font-awesome/1792/ellipsis-v-128.png;fontSize=22;" parent="q2XyKqmEsxMkfOhUg6Uy-18" vertex="1">
          <mxGeometry x="80" y="200" width="40" height="40" as="geometry" />
        </mxCell>
        <mxCell id="q2XyKqmEsxMkfOhUg6Uy-24" value="" style="html=1;shadow=0;dashed=0;align=center;verticalAlign=middle;shape=mxgraph.arrows2.twoWayArrow;dy=0.6;dx=35;fontSize=22;fillColor=#bac8d3;strokeColor=#23445d;strokeWidth=3;" parent="q2XyKqmEsxMkfOhUg6Uy-18" vertex="1">
          <mxGeometry x="240" y="100" width="120" height="80" as="geometry" />
        </mxCell>
        <mxCell id="zL9s2MAgw91FGzoXhTXC-1" value="" style="html=1;shadow=0;dashed=0;align=center;verticalAlign=middle;shape=mxgraph.arrows2.arrow;dy=0.6;dx=40;notch=0;rounded=0;fontSize=22;strokeWidth=3;fillColor=#bac8d3;strokeColor=#23445d;" parent="1" vertex="1">
          <mxGeometry x="680" y="482" width="120" height="80" as="geometry" />
        </mxCell>
        <mxCell id="zL9s2MAgw91FGzoXhTXC-4" value="완성&lt;br style=&quot;font-size: 33px;&quot;&gt;제품" style="ellipse;whiteSpace=wrap;html=1;rounded=0;fontSize=33;strokeWidth=3;fillColor=#f5f5f5;strokeColor=#666666;fontColor=#333333;" parent="1" vertex="1">
          <mxGeometry x="1080" y="473" width="140" height="98" as="geometry" />
        </mxCell>
        <mxCell id="zL9s2MAgw91FGzoXhTXC-5" value="" style="html=1;shadow=0;dashed=0;align=center;verticalAlign=middle;shape=mxgraph.arrows2.arrow;dy=0.6;dx=40;notch=0;rounded=0;fontSize=22;strokeWidth=3;fillColor=#bac8d3;strokeColor=#23445d;" parent="1" vertex="1">
          <mxGeometry x="920" y="484" width="120" height="80" as="geometry" />
        </mxCell>
        <mxCell id="zL9s2MAgw91FGzoXhTXC-6" value="" style="shape=image;html=1;verticalAlign=top;verticalLabelPosition=bottom;labelBackgroundColor=#ffffff;imageAspect=0;aspect=fixed;image=https://cdn2.iconfinder.com/data/icons/font-awesome/1792/ellipsis-h-128.png;rounded=0;fontSize=22;strokeWidth=3;" parent="1" vertex="1">
          <mxGeometry x="835" y="497" width="54" height="54" as="geometry" />
        </mxCell>
        <mxCell id="zL9s2MAgw91FGzoXhTXC-8" value="" style="html=1;shadow=0;dashed=0;align=center;verticalAlign=middle;shape=mxgraph.arrows2.arrow;dy=0.6;dx=40;notch=0;rounded=0;fontSize=22;strokeWidth=3;fillColor=#bac8d3;strokeColor=#23445d;" parent="1" vertex="1">
          <mxGeometry x="-120" y="482" width="120" height="80" as="geometry" />
        </mxCell>
        <mxCell id="zL9s2MAgw91FGzoXhTXC-12" value="&lt;b&gt;&lt;font style=&quot;font-size: 44px&quot;&gt;단조 공정&lt;/font&gt;&lt;/b&gt;" style="rounded=0;whiteSpace=wrap;html=1;fontSize=22;strokeWidth=4;fillColor=#FFFFFF;" parent="1" vertex="1">
          <mxGeometry x="347" y="40" width="226" height="80" as="geometry" />
        </mxCell>
        <mxCell id="q2XyKqmEsxMkfOhUg6Uy-1" value="가열로 1" style="rounded=0;whiteSpace=wrap;html=1;fontSize=33;fillColor=#f5f5f5;strokeColor=#666666;fontColor=#333333;strokeWidth=3;" parent="1" vertex="1">
          <mxGeometry x="40" y="162" width="200" height="80" as="geometry" />
        </mxCell>
        <mxCell id="q2XyKqmEsxMkfOhUg6Uy-2" value="가열로 2" style="rounded=0;whiteSpace=wrap;html=1;fontSize=33;fillColor=#f5f5f5;strokeColor=#666666;fontColor=#333333;strokeWidth=3;" parent="1" vertex="1">
          <mxGeometry x="40" y="262" width="200" height="80" as="geometry" />
        </mxCell>
        <mxCell id="q2XyKqmEsxMkfOhUg6Uy-5" value="가열로 5" style="rounded=0;whiteSpace=wrap;html=1;fontSize=33;fillColor=#f5f5f5;strokeColor=#666666;fontColor=#333333;strokeWidth=3;" parent="1" vertex="1">
          <mxGeometry x="40" y="422" width="200" height="80" as="geometry" />
        </mxCell>
        <mxCell id="q2XyKqmEsxMkfOhUg6Uy-6" value="프레스기 1" style="rounded=0;whiteSpace=wrap;html=1;fontSize=33;fillColor=#f5f5f5;strokeColor=#666666;fontColor=#333333;strokeWidth=3;" parent="1" vertex="1">
          <mxGeometry x="440" y="262" width="200" height="80" as="geometry" />
        </mxCell>
        <mxCell id="q2XyKqmEsxMkfOhUg6Uy-10" value="" style="shape=image;html=1;verticalAlign=top;verticalLabelPosition=bottom;labelBackgroundColor=#ffffff;imageAspect=0;aspect=fixed;image=https://cdn2.iconfinder.com/data/icons/font-awesome/1792/ellipsis-v-128.png;fontSize=22;" parent="1" vertex="1">
          <mxGeometry x="120" y="362" width="40" height="40" as="geometry" />
        </mxCell>
        <mxCell id="q2XyKqmEsxMkfOhUg6Uy-15" value="" style="html=1;shadow=0;dashed=0;align=center;verticalAlign=middle;shape=mxgraph.arrows2.twoWayArrow;dy=0.6;dx=35;fontSize=22;fillColor=#bac8d3;strokeColor=#23445d;strokeWidth=3;" parent="1" vertex="1">
          <mxGeometry x="280" y="262" width="120" height="80" as="geometry" />
        </mxCell>
        <mxCell id="zL9s2MAgw91FGzoXhTXC-13" value="강괴" style="ellipse;whiteSpace=wrap;html=1;rounded=0;fontSize=33;strokeWidth=3;fillColor=#f5f5f5;strokeColor=#666666;fontColor=#333333;" parent="1" vertex="1">
          <mxGeometry x="-300" y="473" width="140" height="98" as="geometry" />
        </mxCell>
      </root>
    </mxGraphModel>
  </diagram>
</mxfile>
